<svg width="4400" height="1063" xmlns="http://www.w3.org/2000/svg" xmlns:xlink="http://www.w3.org/1999/xlink" xml:space="preserve" overflow="hidden"><defs><clipPath id="clip0"><rect x="308" y="827" width="4400" height="1063"/></clipPath><clipPath id="clip1"><rect x="308" y="825" width="656" height="659"/></clipPath><clipPath id="clip2"><rect x="308" y="825" width="656" height="659"/></clipPath><clipPath id="clip3"><rect x="308" y="825" width="656" height="659"/></clipPath><clipPath id="clip4"><rect x="1632" y="916" width="577" height="575"/></clipPath><clipPath id="clip5"><rect x="1632" y="916" width="577" height="575"/></clipPath><clipPath id="clip6"><rect x="1632" y="916" width="577" height="575"/></clipPath><clipPath id="clip7"><rect x="3485" y="1202" width="689" height="688"/></clipPath><clipPath id="clip8"><rect x="3485" y="1202" width="689" height="688"/></clipPath><clipPath id="clip9"><rect x="3485" y="1202" width="689" height="688"/></clipPath><clipPath id="clip10"><rect x="3558" y="1076" width="247" height="248"/></clipPath><clipPath id="clip11"><rect x="3558" y="1076" width="247" height="248"/></clipPath><clipPath id="clip12"><rect x="3558" y="1076" width="247" height="248"/></clipPath><clipPath id="clip13"><rect x="3691" y="981" width="205" height="204"/></clipPath><clipPath id="clip14"><rect x="3691" y="981" width="205" height="204"/></clipPath><clipPath id="clip15"><rect x="3691" y="981" width="205" height="204"/></clipPath><clipPath id="clip16"><rect x="3803" y="1047" width="232" height="233"/></clipPath><clipPath id="clip17"><rect x="3803" y="1047" width="232" height="233"/></clipPath><clipPath id="clip18"><rect x="3803" y="1047" width="232" height="233"/></clipPath></defs><g clip-path="url(#clip0)" transform="translate(-308 -827)"><g clip-path="url(#clip1)"><g clip-path="url(#clip2)"><g clip-path="url(#clip3)"><path d="M27.306 307.192 150.183 307.192 150.183 348.151 27.306 348.151Z" fill="#FFC000" transform="matrix(1 0 0 1.00237 308 827)"/><path d="M505.161 307.192 628.038 307.192 628.038 348.151 505.161 348.151Z" fill="#FFC000" transform="matrix(1 0 0 1.00237 308 827)"/><path d="M477.855 327.672C477.855 410.615 410.615 477.855 327.672 477.855 244.728 477.855 177.489 410.615 177.489 327.672 177.489 244.728 244.728 177.489 327.672 177.489 410.615 177.489 477.855 244.728 477.855 327.672Z" fill="#FFC000" transform="matrix(1 0 0 1.00237 308 827)"/><path d="M307.192 505.161 348.151 505.161 348.151 628.038 307.192 628.038Z" fill="#FFC000" transform="matrix(1 0 0 1.00237 308 827)"/><path d="M307.192 27.306 348.151 27.306 348.151 150.183 307.192 150.183Z" fill="#FFC000" transform="matrix(1 0 0 1.00237 308 827)"/><path d="M97.7334 476.365 220.754 476.365 220.754 517.372 97.7334 517.372Z" fill="#FFC000" transform="matrix(-0.706271 0.707945 -0.706271 -0.707945 929.782 1563.46)"/><path d="M435.358 138.741 558.379 138.741 558.379 179.748 435.358 179.748Z" fill="#FFC000" transform="matrix(-0.706271 0.707945 -0.706271 -0.707945 1268.34 747.423)"/><path d="M138.741 97.7334 179.748 97.7334 179.748 220.754 138.741 220.754Z" fill="#FFC000" transform="matrix(-0.706271 0.707945 -0.706271 -0.707945 691.995 985.77)"/><path d="M476.365 435.358 517.372 435.358 517.372 558.379 476.365 558.379Z" fill="#FFC000" transform="matrix(-0.706271 0.707945 -0.706271 -0.707945 1506.13 1325.12)"/></g></g></g><path d="M338.019 1034.75 455.721 1034.75 498.098 1259.39 560.118 1034.75 677.398 1034.75 739.571 1259.09 781.994 1034.75 899.085 1034.75 810.684 1436.01 689.165 1436.01 618.826 1183.38 548.761 1436.01 427.242 1436.01 338.019 1034.75Z" fill="#F2F2F2" fill-rule="evenodd" transform="matrix(1 0 0 1.00061 17.1194 296.651)"/><path d="M1426.83 1034.75 1426.83 1145.42 1488.23 1145.42 1488.23 1227.06 1426.83 1227.06 1426.83 1330.12C1426.83 1342.51 1428.03 1350.71 1430.4 1354.72 1434.05 1360.92 1440.45 1364.01 1449.59 1364.01 1457.81 1364.01 1469.31 1361.64 1484.12 1356.91L1492.34 1433.87C1464.75 1439.89 1438.99 1442.91 1415.05 1442.91 1387.28 1442.91 1366.82 1439.35 1353.65 1432.24 1340.5 1425.12 1330.77 1414.31 1324.46 1399.81 1318.16 1385.32 1315.01 1361.84 1315.01 1329.37L1315.01 1227.06 1273.9 1227.06 1273.9 1145.42 1315.01 1145.42 1315.01 1092 1426.83 1034.75Z" fill="#F2F2F2" fill-rule="evenodd" transform="matrix(1 0 0 1.00061 17.1194 296.651)"/><path d="M1676.32 1034.75 1676.32 1145.42 1737.72 1145.42 1737.72 1227.06 1676.32 1227.06 1676.32 1330.12C1676.32 1342.51 1677.52 1350.71 1679.89 1354.72 1683.54 1360.92 1689.94 1364.01 1699.08 1364.01 1707.3 1364.01 1718.81 1361.64 1733.61 1356.91L1741.83 1433.87C1714.24 1439.89 1688.48 1442.91 1664.54 1442.91 1636.77 1442.91 1616.31 1439.35 1603.14 1432.24 1589.99 1425.12 1580.26 1414.31 1573.95 1399.81 1567.65 1385.32 1564.5 1361.84 1564.5 1329.37L1564.5 1227.06 1523.39 1227.06 1523.39 1145.42 1564.5 1145.42 1564.5 1092 1676.32 1034.75Z" fill="#F2F2F2" fill-rule="evenodd" transform="matrix(1 0 0 1.00061 17.1194 296.651)"/><path d="M2908.83 1034.75 2908.83 1145.42 2970.22 1145.42 2970.22 1227.06 2908.83 1227.06 2908.83 1330.12C2908.83 1342.51 2910.02 1350.71 2912.39 1354.72 2916.05 1360.92 2922.44 1364.01 2931.58 1364.01 2939.8 1364.01 2951.32 1361.64 2966.12 1356.91L2974.34 1433.87C2946.75 1439.89 2920.98 1442.91 2897.04 1442.91 2869.28 1442.91 2848.81 1439.35 2835.65 1432.24 2822.5 1425.12 2812.77 1414.31 2806.46 1399.81 2800.16 1385.32 2797.01 1361.84 2797.01 1329.37L2797.01 1227.06 2755.89 1227.06 2755.89 1145.42 2797.01 1145.42 2797.01 1092 2908.83 1034.75Z" fill="#F2F2F2" fill-rule="evenodd" transform="matrix(1 0 0 1.00061 17.1194 296.651)"/><path d="M3525.08 1034.75 3525.08 1145.42 3586.48 1145.42 3586.48 1227.06 3525.08 1227.06 3525.08 1330.12C3525.08 1342.51 3526.28 1350.71 3528.65 1354.72 3532.3 1360.92 3538.69 1364.01 3547.83 1364.01 3556.06 1364.01 3567.58 1361.64 3582.37 1356.91L3590.59 1433.87C3563 1439.89 3537.23 1442.91 3513.3 1442.91 3485.53 1442.91 3465.07 1439.35 3451.9 1432.24 3438.75 1425.12 3429.02 1414.31 3422.71 1399.81 3416.41 1385.32 3413.26 1361.84 3413.26 1329.37L3413.26 1227.06 3372.15 1227.06 3372.15 1145.42 3413.26 1145.42 3413.26 1092 3525.08 1034.75Z" fill="#F2F2F2" fill-rule="evenodd" transform="matrix(1 0 0 1.00061 17.1194 296.651)"/><path d="M1067.42 1138.23C1109.19 1138.23 1142.17 1144.54 1166.35 1157.16 1190.54 1169.8 1208.95 1188.09 1221.6 1212.06 1234.23 1236.04 1240.55 1267.24 1240.55 1305.66L1240.55 1318.29 1016.31 1318.29C1018.32 1336.22 1023.18 1349.58 1030.87 1358.37 1041.68 1370.99 1055.79 1377.3 1073.19 1377.3 1084.19 1377.3 1094.63 1374.55 1104.52 1369.07 1110.57 1365.6 1117.07 1359.46 1124.03 1350.67L1234.23 1360.84C1217.38 1390.11 1197.04 1411.12 1173.23 1423.83 1149.41 1436.55 1115.24 1442.91 1070.72 1442.91 1032.06 1442.91 1001.65 1437.47 979.482 1426.58 957.314 1415.69 938.948 1398.39 924.383 1374.69 909.817 1351 902.535 1323.14 902.535 1291.12 902.535 1245.56 917.145 1208.68 946.368 1180.5 975.589 1152.32 1015.94 1138.23 1067.42 1138.23ZM1072.09 1204.38C1054.32 1204.38 1040.12 1211.42 1029.5 1225.52 1022.72 1234.3 1018.41 1247.38 1016.58 1264.77L1126.78 1264.77C1124.58 1243.18 1118.77 1227.71 1109.33 1218.38 1099.9 1209.04 1087.48 1204.38 1072.09 1204.38Z" fill="#F2F2F2" fill-rule="evenodd" transform="matrix(1 0 0 1.00061 17.1194 296.651)"/><path d="M1940.66 1138.23C1982.29 1138.23 2015.15 1144.54 2039.25 1157.16 2063.36 1169.8 2081.7 1188.09 2094.29 1212.06 2106.9 1236.04 2113.2 1267.24 2113.2 1305.66L2113.2 1318.29 1889.71 1318.29C1891.72 1336.22 1896.55 1349.58 1904.22 1358.37 1914.99 1370.99 1929.06 1377.3 1946.41 1377.3 1957.36 1377.3 1967.77 1374.55 1977.63 1369.07 1983.66 1365.6 1990.13 1359.46 1997.07 1350.67L2106.9 1360.84C2090.1 1390.11 2069.83 1411.12 2046.1 1423.83 2022.36 1436.55 1988.31 1442.91 1943.94 1442.91 1905.42 1442.91 1875.1 1437.47 1853.01 1426.58 1830.92 1415.69 1812.61 1398.39 1798.1 1374.69 1783.58 1351 1776.33 1323.14 1776.33 1291.12 1776.33 1245.56 1790.88 1208.68 1820 1180.5 1849.13 1152.32 1889.34 1138.23 1940.66 1138.23ZM1945.31 1204.38C1927.6 1204.38 1913.44 1211.42 1902.85 1225.52 1896.1 1234.3 1891.82 1247.38 1889.99 1264.77L1999.81 1264.77C1997.61 1243.18 1991.82 1227.71 1982.41 1218.38 1973.02 1209.04 1960.65 1204.38 1945.31 1204.38Z" fill="#F2F2F2" fill-rule="evenodd" transform="matrix(1 0 0 1.00061 17.1194 296.651)"/><path d="M2342.12 1138.23C2358.54 1138.23 2376.51 1143.35 2396.03 1153.59L2361.55 1233.1C2348.41 1227.62 2338.01 1224.87 2330.34 1224.87 2315.75 1224.87 2304.44 1230.91 2296.4 1242.97 2284.92 1259.97 2279.17 1291.77 2279.17 1338.4L2279.17 1436.01 2167.23 1436.01 2167.23 1144.81 2271.5 1144.81 2271.5 1192.52C2281.54 1171.86 2291.9 1157.65 2302.57 1149.89 2313.24 1142.11 2326.42 1138.23 2342.12 1138.23Z" fill="#F2F2F2" fill-rule="evenodd" transform="matrix(1 0 0 1.00061 17.1194 296.651)"/><path d="M2564.66 1138.23C2599.36 1138.23 2624.96 1140.88 2641.49 1146.19 2658.02 1151.5 2671.81 1159.73 2682.86 1170.89 2693.91 1182.06 2703.09 1197.15 2710.39 1216.18L2604.65 1226.61C2601.91 1217.28 2597.35 1210.42 2590.95 1206.03 2582.18 1200.18 2571.59 1197.24 2559.17 1197.24 2546.57 1197.24 2537.4 1199.49 2531.65 1203.96 2525.89 1208.43 2523.02 1213.87 2523.02 1220.26 2523.02 1227.39 2526.67 1232.78 2533.97 1236.44 2541.27 1240.08 2557.16 1243.38 2581.64 1246.3 2618.71 1250.51 2646.29 1256.35 2664.36 1263.85 2682.45 1271.34 2696.28 1282.04 2705.87 1295.94 2715.46 1309.82 2720.25 1325.09 2720.25 1341.72 2720.25 1358.54 2715.18 1374.9 2705.05 1390.81 2694.91 1406.71 2678.93 1419.37 2657.11 1428.79 2635.29 1438.2 2605.57 1442.91 2567.95 1442.91 2514.79 1442.91 2476.95 1435.32 2454.39 1420.12 2431.84 1404.93 2417.37 1383.34 2410.97 1355.34L2521.65 1344.91C2526.21 1358.09 2532.6 1367.52 2540.82 1373.19 2549.03 1378.85 2560 1381.69 2573.7 1381.69 2588.66 1381.69 2600.27 1378.5 2608.49 1372.11 2614.88 1367.36 2618.07 1361.41 2618.07 1354.28 2618.07 1346.25 2613.87 1340.04 2605.47 1335.65 2599.45 1332.54 2583.47 1328.7 2557.53 1324.14 2518.82 1317.38 2491.93 1311.11 2476.85 1305.36 2461.79 1299.6 2449.1 1289.87 2438.78 1276.16 2428.46 1262.44 2423.3 1246.82 2423.3 1229.26 2423.3 1210.07 2428.88 1193.53 2440.02 1179.63 2451.16 1165.74 2466.5 1155.37 2486.03 1148.51 2505.57 1141.66 2531.78 1138.23 2564.66 1138.23Z" fill="#F2F2F2" fill-rule="evenodd" transform="matrix(1 0 0 1.00061 17.1194 296.651)"/><path d="M3168.92 1138.23C3202.3 1138.23 3229.11 1140.1 3249.35 1143.86 3269.59 1147.61 3286.47 1155.43 3299.97 1167.33 3309.44 1175.56 3316.92 1187.22 3322.4 1202.33 3327.87 1217.42 3330.61 1231.83 3330.61 1245.56L3330.61 1374.29C3330.61 1388.01 3331.47 1398.76 3333.2 1406.54 3334.93 1414.31 3338.71 1424.25 3344.55 1436.32L3240.05 1436.32C3235.86 1428.82 3233.12 1423.1 3231.84 1419.16 3230.57 1415.23 3229.29 1409.06 3228.02 1400.63 3213.43 1414.73 3198.93 1424.79 3184.52 1430.83 3164.82 1438.88 3141.94 1442.91 3115.85 1442.91 3081.2 1442.91 3054.89 1434.86 3036.93 1418.75 3018.96 1402.65 3009.98 1382.8 3009.98 1359.18 3009.98 1337.05 3016.45 1318.84 3029.4 1304.57 3042.36 1290.29 3066.25 1279.68 3101.07 1272.72 3142.84 1264.31 3169.93 1258.41 3182.33 1255.02 3194.73 1251.64 3207.86 1247.2 3221.73 1241.7 3221.73 1227.99 3218.9 1218.38 3213.24 1212.89 3207.59 1207.4 3197.65 1204.65 3183.42 1204.65 3165.18 1204.65 3151.5 1207.58 3142.38 1213.43 3135.28 1218.01 3129.53 1226.61 3125.15 1239.24L3018.73 1227.99C3022.74 1209.32 3028.54 1194.63 3036.1 1183.93 3043.68 1173.23 3054.57 1163.94 3068.8 1156.07 3079.01 1150.39 3093.05 1146.01 3110.93 1142.89 3128.81 1139.78 3148.13 1138.23 3168.92 1138.23ZM3221.73 1297.98C3206.4 1303.47 3190.44 1308.32 3173.85 1312.53 3151.24 1318.56 3136.91 1324.51 3130.9 1330.37 3124.7 1336.41 3121.6 1343.27 3121.6 1350.95 3121.6 1359.73 3124.66 1366.92 3130.76 1372.5 3136.87 1378.08 3145.86 1380.88 3157.71 1380.88 3170.1 1380.88 3181.65 1377.85 3192.32 1371.82 3202.99 1365.77 3210.55 1358.41 3215.02 1349.72 3219.48 1341.03 3221.73 1329.73 3221.73 1315.81L3221.73 1297.98Z" fill="#F2F2F2" fill-rule="evenodd" transform="matrix(1 0 0 1.00061 17.1194 296.651)"/><path d="M4160.04 1138.23C4218.16 1138.23 4262.07 1155.15 4291.77 1189.01 4315.63 1216.27 4327.57 1249.86 4327.57 1289.74 4327.57 1334.58 4312.76 1371.31 4283.15 1399.95 4253.55 1428.59 4212.61 1442.91 4160.31 1442.91 4113.67 1442.91 4075.95 1431.01 4047.16 1407.22 4011.82 1377.76 3994.15 1339.15 3994.15 1291.39 3994.15 1246.92 4009.08 1210.28 4038.96 1181.46 4068.84 1152.63 4109.2 1138.23 4160.04 1138.23ZM4161.67 1215.09C4145.46 1215.09 4132.07 1221.35 4121.5 1233.89 4110.94 1246.42 4105.65 1265.5 4105.65 1291.12 4105.65 1317.1 4110.89 1336.31 4121.36 1348.75 4131.84 1361.21 4145 1367.43 4160.86 1367.43 4176.9 1367.43 4190.05 1361.3 4200.35 1349.03 4210.64 1336.77 4215.79 1317.1 4215.79 1290.02 4215.79 1264.77 4210.59 1245.97 4200.21 1233.61 4189.83 1221.26 4176.98 1215.09 4161.67 1215.09Z" fill="#F2F2F2" fill-rule="evenodd" transform="matrix(1 0 0 1.00061 17.1194 296.651)"/><path d="M4592.11 1138.23C4623.01 1138.23 4647.21 1147.41 4664.68 1165.79 4682.14 1184.16 4690.88 1212.54 4690.88 1250.92L4690.88 1436.01 4578.66 1436.01 4578.66 1275.87C4578.66 1257.59 4575.28 1244.66 4568.5 1237.08 4561.74 1229.49 4552.22 1225.7 4539.97 1225.7 4526.44 1225.7 4515.47 1230.82 4507.05 1241.05 4498.64 1251.29 4494.43 1269.67 4494.43 1296.17L4494.43 1436.01 4382.75 1436.01 4382.75 1144.81 4486.75 1144.81 4486.75 1192.24C4502.29 1172.87 4518.02 1159.03 4533.93 1150.7 4549.86 1142.39 4569.24 1138.23 4592.11 1138.23Z" fill="#F2F2F2" fill-rule="evenodd" transform="matrix(1 0 0 1.00061 17.1194 296.651)"/><g clip-path="url(#clip4)"><g clip-path="url(#clip5)"><g clip-path="url(#clip6)"><path d="M334.201 352.105C333.693 352.105 333.222 352.212 332.727 352.253 332.231 352.296 331.754 352.105 331.246 352.105L131.293 352.105C121.405 352.105 113.39 360.12 113.39 370.008 113.39 379.896 121.405 387.912 131.293 387.912L331.246 387.912C331.754 387.912 332.225 387.804 332.721 387.763 333.216 387.721 333.688 387.912 334.201 387.912 344.089 387.918 352.099 395.938 352.093 405.826 352.088 415.713 344.068 423.725 334.179 423.719 327.669 423.715 321.674 420.177 318.523 414.48 313.87 405.756 303.025 402.455 294.3 407.108 285.575 411.762 282.276 422.607 286.928 431.332 287.024 431.509 287.12 431.685 287.222 431.859 301.605 457.802 334.296 467.172 360.24 452.79 386.183 438.406 395.553 405.714 381.171 379.772 371.705 362.699 353.721 352.106 334.201 352.105Z" fill="#A6A6A6" transform="matrix(1.00139 0 0 1 1633.63 916.734)"/><path d="M101.454 244.683 268.555 244.683C304.809 244.677 334.197 215.283 334.193 179.028 334.188 142.772 304.793 113.385 268.537 113.39 235.55 113.394 207.689 137.877 203.445 170.592 202.183 180.401 209.111 189.375 218.919 190.638 228.728 191.9 237.704 184.972 238.966 175.163 241.104 158.822 256.085 147.311 272.426 149.449 288.767 151.588 300.278 166.569 298.139 182.91 296.194 197.764 283.536 208.875 268.555 208.876L101.454 208.876C91.5656 208.876 83.5502 216.891 83.5502 226.779 83.5502 236.667 91.5656 244.683 101.454 244.683Z" fill="#A6A6A6" transform="matrix(1.00139 0 0 1 1633.63 916.734)"/><path d="M447.591 137.262C398.112 137.301 358.033 177.443 358.072 226.923 358.078 234.401 359.02 241.849 360.877 249.093 363.335 258.671 373.095 264.442 382.672 261.983 392.249 259.525 398.021 249.767 395.562 240.188 388.156 211.464 405.438 182.176 434.163 174.769 462.887 167.363 492.176 184.644 499.582 213.37 506.989 242.094 489.706 271.382 460.982 278.789 456.608 279.918 452.109 280.488 447.591 280.49L53.7108 280.49C43.823 280.49 35.8072 288.506 35.8072 298.393 35.8072 308.281 43.823 316.298 53.7108 316.298L447.591 316.298C497.029 316.298 537.108 276.219 537.108 226.779 537.108 177.339 497.029 137.262 447.591 137.262Z" fill="#A6A6A6" transform="matrix(1.00139 0 0 1 1633.63 916.734)"/></g></g></g><g clip-path="url(#clip7)"><g clip-path="url(#clip8)"><g clip-path="url(#clip9)"><path d="M486.918 450.224 357.749 78.9185 357.749 53.6998C357.749 45.7975 351.342 39.3913 343.44 39.3913 335.537 39.3913 329.132 45.7975 329.132 53.6998L329.132 78.9758 199.983 450.224C198.32 454.996 200.839 460.213 205.611 461.877 206.577 462.214 207.594 462.385 208.618 462.387 213.102 462.314 216.895 459.054 217.64 454.631 221.421 434.376 240.908 421.023 261.164 424.804 276.711 427.708 288.739 440.099 291.178 455.726 291.802 459.98 295.754 462.923 300.009 462.299 303.411 461.8 306.083 459.129 306.581 455.726 308.554 442.89 317.113 432.029 329.132 427.108L329.132 543.795 321.977 543.795 321.977 575.989C321.977 583.892 315.572 590.297 307.668 590.297 299.766 590.297 293.36 583.892 293.36 575.989 293.36 564.135 283.751 554.526 271.898 554.526 260.044 554.526 250.434 564.135 250.434 575.989 250.434 607.599 276.059 633.223 307.668 633.223 339.279 633.223 364.902 607.599 364.902 575.989L364.902 543.795 357.749 543.795 357.749 427.108C369.773 432.024 378.338 442.887 380.314 455.726 380.936 459.98 384.89 462.923 389.143 462.299 392.545 461.8 395.217 459.129 395.717 455.726 398.908 435.365 418.001 421.447 438.362 424.639 453.976 427.087 466.353 439.104 469.262 454.638 470.006 459.058 473.795 462.318 478.276 462.393 483.334 462.39 487.43 458.285 487.426 453.228 487.425 452.209 487.253 451.195 486.918 450.231Z" fill="#0070C0" transform="matrix(1.00105 0 0 1 3485.84 1203.19)"/></g></g></g><g clip-path="url(#clip10)"><g clip-path="url(#clip11)"><g clip-path="url(#clip12)"><path d="M3663.6 806.173C3663.6 806.173 3599.83 895.966 3599.83 936.272 3599.83 971.476 3628.4 1000.05 3663.6 1000.05 3698.81 1000.05 3727.38 971.476 3727.38 936.272 3727.38 895.712 3663.6 806.173 3663.6 806.173Z" fill="#8FAADC" transform="matrix(1 0 0 1.00061 17.1194 296.651)"/></g></g></g><g clip-path="url(#clip13)"><g clip-path="url(#clip14)"><g clip-path="url(#clip15)"><path d="M3776.85 705.165C3776.85 705.165 3724.16 779.361 3724.16 812.664 3724.16 841.752 3747.76 865.361 3776.85 865.361 3805.94 865.361 3829.54 841.752 3829.54 812.664 3829.54 779.15 3776.85 705.165 3776.85 705.165Z" fill="#00B0F0" transform="matrix(1 0 0 1.00061 17.1194 296.651)"/></g></g></g><g clip-path="url(#clip16)"><g clip-path="url(#clip17)"><g clip-path="url(#clip18)"><path d="M3901.59 774.844C3901.59 774.844 3841.42 859.579 3841.42 897.613 3841.42 930.832 3868.38 957.793 3901.59 957.793 3934.81 957.793 3961.77 930.832 3961.77 897.613 3961.77 859.337 3901.59 774.844 3901.59 774.844Z" fill="#8FAADC" transform="matrix(1 0 0 1.00061 17.1194 296.651)"/></g></g></g><path d="M766.614 1363.65 1567.92 1233.86 2822.42 1030.67 3623.73 900.882 3267.25 1190.79 3697.01 1353.35 2895.71 1483.14 1641.21 1686.33 839.9 1816.12 1196.37 1526.21Z" stroke="#000000" stroke-width="20.625" stroke-miterlimit="8" fill="#FF0000" fill-rule="evenodd"/><path d="M1270.06 1377.62 1291.67 1374.08 1341.47 1547.46C1342.22 1551.41 1343.39 1557.22 1344.97 1564.9 1344.22 1560.95 1343.47 1555.06 1342.72 1547.25L1339.12 1366.3 1357.75 1363.25 1411.94 1535.91C1412.79 1539.84 1413.96 1545.66 1415.44 1553.35 1414.79 1549.38 1414.09 1543.49 1413.34 1535.68L1405.2 1355.47 1426.65 1351.96 1433.56 1603.12 1415.87 1606.02 1358.96 1425.6C1358.33 1422.38 1357.33 1417.61 1355.98 1411.3 1356.52 1414.64 1357.1 1419.47 1357.71 1425.81L1361.37 1614.95 1343.68 1617.85 1270.06 1377.62Z" fill-rule="evenodd"/><path d="M2440.79 1185.75 2461.62 1182.33 2477.5 1279.27C2485.58 1276.87 2493.66 1274.47 2501.73 1272.08 2511.95 1269.01 2520.03 1266.99 2525.98 1266.01 2537.57 1264.11 2544.3 1268.85 2546.16 1280.23L2563.13 1383.74C2564.67 1393.14 2562.87 1401.44 2557.72 1408.66 2552.58 1415.89 2545.37 1420.26 2536.08 1421.78L2480.96 1430.81 2440.79 1185.75ZM2525.75 1286.15 2480.07 1294.92 2498.78 1409.08 2527.59 1404.36C2538.97 1402.49 2543.7 1395.71 2541.79 1384.02L2525.75 1286.15Z" fill-rule="evenodd"/><path d="M2686.31 1179.44 2707.45 1175.97 2711.76 1202.28 2690.62 1205.74 2686.31 1179.44Z" fill-rule="evenodd"/><path d="M1689.46 1355.36 1709.98 1351.99 1717.75 1399.44 1744.37 1395.08 1747.38 1413.4 1720.76 1417.76 1739.72 1533.48 1766.34 1529.12 1769.34 1547.44 1739.75 1552.29C1728.06 1554.21 1721.24 1549.27 1719.31 1537.47L1700.24 1421.12 1681.92 1424.13 1678.92 1405.81 1697.24 1402.8 1689.46 1355.36Z" fill-rule="evenodd"/><path d="M2754.84 1180.75 2775.35 1177.39 2783.13 1224.83 2809.75 1220.47 2812.75 1238.79 2786.13 1243.16 2805.1 1358.88 2831.72 1354.51 2834.72 1372.84 2805.12 1377.69C2793.43 1379.6 2786.62 1374.66 2784.69 1362.87L2765.62 1246.52 2747.3 1249.52 2744.29 1231.2 2762.61 1228.2 2754.84 1180.75Z" fill-rule="evenodd"/><path d="M1648.62 1409.81C1660.1 1407.93 1666.77 1412.67 1668.64 1424.05L1674.21 1458.03 1653.69 1461.4 1648.54 1429.92 1610.38 1437.46 1632.09 1569.94 1611.26 1573.35 1586.29 1420.99 1607.12 1417.57 1607.81 1421.8C1614.53 1419.63 1621.29 1417.39 1628.1 1415.1 1636.24 1412.48 1643.08 1410.71 1648.62 1409.81Z" fill-rule="evenodd"/><path d="M1944.38 1361.33C1955.96 1359.44 1962.69 1364.18 1964.56 1375.55L1986.88 1511.79 1966.06 1515.2 1944.14 1381.47 1898.46 1390.25 1920.17 1522.72 1899.35 1526.14 1874.38 1373.77 1895.2 1370.36 1895.9 1374.59C1903.87 1372.21 1911.88 1369.77 1919.94 1367.27 1929.76 1364.37 1937.9 1362.4 1944.38 1361.33Z" fill-rule="evenodd"/><path d="M2022.62 1348.51C2025.02 1348.12 2037.67 1347.81 2060.58 1347.6L2059.88 1343.37 2080.55 1339.98 2112.1 1532.43C2114.03 1544.23 2109.1 1551.09 2097.3 1553.03L2047.82 1561.14C2035.81 1563.1 2028.59 1556.62 2026.14 1541.7 2025.85 1539.92 2025.5 1537.27 2025.08 1533.75 2024.66 1530.23 2024.33 1527.68 2024.07 1526.12L2044.58 1522.75 2047.89 1542.95 2091.43 1535.82 2084.86 1495.73 2050.56 1501.35C2041.27 1502.88 2033.04 1501.04 2025.86 1495.83 2018.68 1490.63 2014.32 1483.33 2012.78 1473.94L1998.18 1384.84C1996.71 1375.86 1998.2 1367.92 2002.64 1361.03 2007.08 1354.14 2013.74 1349.97 2022.62 1348.51ZM2033.92 1365.47C2022.44 1367.35 2017.65 1374.14 2019.57 1385.83L2032.94 1467.42C2034.86 1479.11 2041.56 1484.02 2053.04 1482.13L2081.85 1477.41 2062.99 1362.32C2046.32 1363.98 2036.63 1365.03 2033.92 1365.47Z" fill-rule="evenodd"/><path d="M2415.03 1284.2C2426.52 1282.32 2433.19 1287.06 2435.06 1298.44L2440.63 1332.42 2420.11 1335.79 2414.95 1304.31 2376.79 1311.85 2398.51 1444.33 2377.68 1447.74 2352.71 1295.38 2373.54 1291.96 2374.23 1296.19C2380.95 1294.02 2387.71 1291.78 2394.52 1289.49 2402.66 1286.87 2409.5 1285.1 2415.03 1284.2Z" fill-rule="evenodd"/><path d="M3015.19 1185.84C3026.78 1183.94 3033.5 1188.68 3035.37 1200.06L3057.69 1336.29 3036.87 1339.7 3014.95 1205.98 2969.27 1214.75 2990.99 1347.22 2970.16 1350.64 2945.19 1198.27 2966.01 1194.86 2966.71 1199.09C2974.68 1196.71 2982.69 1194.27 2990.75 1191.77 3000.57 1188.88 3008.71 1186.9 3015.19 1185.84Z" fill-rule="evenodd"/><path d="M1485.19 1437.56 1535.29 1429.34C1546.99 1427.43 1553.8 1432.37 1555.73 1444.16L1577.8 1578.83 1557.29 1582.2 1556.6 1577.97C1548.54 1580.47 1540.47 1582.92 1532.4 1585.31 1522.37 1588.24 1514.28 1590.21 1508.12 1591.22 1496.74 1593.08 1490.13 1588.38 1488.28 1577.1L1479.17 1521.51C1477.25 1509.82 1482.19 1503.01 1493.99 1501.08L1543 1493.04 1535.48 1447.16 1490.7 1454.5 1494.96 1480.5 1474.76 1483.81 1470.55 1458.13C1468.61 1446.33 1473.49 1439.47 1485.19 1437.56ZM1499.16 1516.95 1508.14 1571.76 1554.5 1563.2 1545.67 1509.33 1499.16 1516.95Z" fill-rule="evenodd"/><path d="M1754.79 1393.37 1775.31 1390.01 1797.22 1523.74 1843.21 1514.91 1821.5 1382.44 1842.02 1379.08 1866.99 1531.44 1846.47 1534.8 1845.78 1530.57C1837.62 1533.09 1829.5 1535.55 1821.42 1537.94 1811.6 1540.84 1803.41 1542.82 1796.83 1543.9 1785.56 1545.75 1778.99 1541.04 1777.15 1529.76L1754.79 1393.37Z" fill-rule="evenodd"/><path d="M2130.45 1331.8 2177.59 1324.08C2189.38 1322.14 2196.25 1327.08 2198.18 1338.87L2203.16 1369.25 2182.96 1372.56 2178.03 1342.5 2135.91 1349.4 2140.27 1376.02 2202.55 1411.64C2208.33 1414.87 2211.8 1419.99 2212.95 1426.98L2217.67 1455.8C2219.6 1467.59 2214.67 1474.46 2202.87 1476.39L2155.11 1484.22C2143.32 1486.15 2136.45 1481.22 2134.52 1469.42L2128.85 1434.82 2149.36 1431.45 2154.98 1465.75 2197.1 1458.84 2192.12 1428.47 2130.32 1392.77C2124.41 1389.45 2120.91 1384.45 2119.82 1377.77L2115.66 1352.4C2113.73 1340.6 2118.66 1333.74 2130.45 1331.8Z" fill-rule="evenodd"/><path d="M2251.6 1311.95 2301.71 1303.73C2313.41 1301.82 2320.22 1306.76 2322.15 1318.55L2344.22 1453.22 2323.71 1456.59 2323.02 1452.36C2314.96 1454.86 2306.89 1457.31 2298.81 1459.7 2288.79 1462.63 2280.7 1464.6 2274.54 1465.61 2263.16 1467.47 2256.54 1462.77 2254.7 1451.49L2245.59 1395.9C2243.67 1384.21 2248.61 1377.4 2260.41 1375.47L2309.42 1367.43 2301.9 1321.55 2257.11 1328.89 2261.37 1354.89 2241.17 1358.2 2236.97 1332.52C2235.03 1320.72 2239.91 1313.86 2251.6 1311.95ZM2265.58 1391.34 2274.56 1446.15 2320.92 1437.59 2312.09 1383.72 2265.58 1391.34Z" fill-rule="evenodd"/><path d="M2593.11 1255.98 2643.22 1247.76C2654.91 1245.85 2661.72 1250.79 2663.65 1262.59L2672.64 1317.39 2666.8 1325.91 2608.86 1335.4 2617.89 1390.52 2662.68 1383.18 2658.11 1355.31 2678.31 1352 2682.82 1379.56C2684.76 1391.36 2679.88 1398.21 2668.19 1400.13L2618.08 1408.34C2606.38 1410.26 2599.57 1405.32 2597.64 1393.52L2578.47 1276.55C2576.53 1264.75 2581.41 1257.89 2593.11 1255.98ZM2598.62 1272.92 2606.14 1318.8 2650.92 1311.46 2643.4 1265.58 2598.62 1272.92Z" fill-rule="evenodd"/><path d="M2696.4 1239.05 2716.92 1235.69 2741.89 1388.05 2721.37 1391.41 2696.4 1239.05Z" fill-rule="evenodd"/><path d="M2843.14 1215 2893.25 1206.79C2904.94 1204.87 2911.76 1209.81 2913.69 1221.61L2922.67 1276.41 2916.83 1284.93 2858.89 1294.42 2867.93 1349.54 2912.71 1342.2 2908.15 1314.33 2928.35 1311.02 2932.86 1338.58C2934.8 1350.38 2929.92 1357.23 2918.22 1359.15L2868.11 1367.36C2856.42 1369.28 2849.61 1364.34 2847.68 1352.54L2828.51 1235.57C2826.57 1223.77 2831.45 1216.91 2843.14 1215ZM2848.65 1231.94 2856.17 1277.82 2900.96 1270.48 2893.44 1224.6 2848.65 1231.94Z" fill-rule="evenodd"/></g></svg>