<svg width="3827" height="924" xmlns="http://www.w3.org/2000/svg" xmlns:xlink="http://www.w3.org/1999/xlink" xml:space="preserve" overflow="hidden"><defs><clipPath id="clip0"><rect x="253" y="461" width="3827" height="924"/></clipPath><clipPath id="clip1"><rect x="253" y="460" width="570" height="572"/></clipPath><clipPath id="clip2"><rect x="253" y="460" width="570" height="572"/></clipPath><clipPath id="clip3"><rect x="253" y="460" width="570" height="572"/></clipPath><clipPath id="clip4"><rect x="1405" y="539" width="501" height="499"/></clipPath><clipPath id="clip5"><rect x="1405" y="539" width="501" height="499"/></clipPath><clipPath id="clip6"><rect x="1405" y="539" width="501" height="499"/></clipPath><clipPath id="clip7"><rect x="3017" y="787" width="598" height="598"/></clipPath><clipPath id="clip8"><rect x="3017" y="787" width="598" height="598"/></clipPath><clipPath id="clip9"><rect x="3017" y="787" width="598" height="598"/></clipPath><clipPath id="clip10"><rect x="3080" y="678" width="214" height="215"/></clipPath><clipPath id="clip11"><rect x="3080" y="678" width="214" height="215"/></clipPath><clipPath id="clip12"><rect x="3080" y="678" width="214" height="215"/></clipPath><clipPath id="clip13"><rect x="3196" y="595" width="177" height="177"/></clipPath><clipPath id="clip14"><rect x="3196" y="595" width="177" height="177"/></clipPath><clipPath id="clip15"><rect x="3196" y="595" width="177" height="177"/></clipPath><clipPath id="clip16"><rect x="3293" y="653" width="201" height="201"/></clipPath><clipPath id="clip17"><rect x="3293" y="653" width="201" height="201"/></clipPath><clipPath id="clip18"><rect x="3293" y="653" width="201" height="201"/></clipPath></defs><g clip-path="url(#clip0)" transform="translate(-253 -461)"><g clip-path="url(#clip1)"><g clip-path="url(#clip2)"><g clip-path="url(#clip3)"><path d="M23.75 267.187 130.625 267.187 130.625 302.812 23.75 302.812Z" fill="#FFC000" transform="matrix(1 0 0 1.00175 253 461)"/><path d="M439.375 267.187 546.25 267.187 546.25 302.812 439.375 302.812Z" fill="#FFC000" transform="matrix(1 0 0 1.00175 253 461)"/><path d="M415.625 285C415.625 357.142 357.142 415.625 285 415.625 212.858 415.625 154.375 357.142 154.375 285 154.375 212.858 212.858 154.375 285 154.375 357.142 154.375 415.625 212.858 415.625 285Z" fill="#FFC000" transform="matrix(1 0 0 1.00175 253 461)"/><path d="M267.187 439.375 302.812 439.375 302.812 546.25 267.187 546.25Z" fill="#FFC000" transform="matrix(1 0 0 1.00175 253 461)"/><path d="M267.187 23.75 302.812 23.75 302.812 130.625 267.187 130.625Z" fill="#FFC000" transform="matrix(1 0 0 1.00175 253 461)"/><path d="M84.9798 414.202 191.947 414.202 191.947 449.858 84.9798 449.858Z" fill="#FFC000" transform="matrix(-0.706488 0.707727 -0.706488 -0.707727 793.809 1101.16)"/><path d="M378.546 120.636 485.514 120.636 485.514 156.292 378.546 156.292Z" fill="#FFC000" transform="matrix(-0.706488 0.707727 -0.706488 -0.707727 1088.28 391.829)"/><path d="M120.636 84.9798 156.292 84.9798 156.292 191.947 120.636 191.947Z" fill="#FFC000" transform="matrix(-0.706488 0.707727 -0.706488 -0.707727 586.988 599.009)"/><path d="M414.202 378.546 449.858 378.546 449.858 485.514 414.202 485.514Z" fill="#FFC000" transform="matrix(-0.706488 0.707727 -0.706488 -0.707727 1295.1 893.982)"/></g></g></g><path d="M294 900 396.374 900 433.232 1095.38 487.175 900 589.182 900 643.259 1095.12 680.157 900 782 900 705.111 1249 599.417 1249 538.238 1029.27 477.297 1249 371.603 1249 294 900Z" fill="#F2F2F2" fill-rule="evenodd"/><path d="M1241.02 900 1241.02 996.255 1294.42 996.255 1294.42 1067.26 1241.02 1067.26 1241.02 1156.9C1241.02 1167.68 1242.06 1174.81 1244.12 1178.3 1247.3 1183.69 1252.86 1186.38 1260.81 1186.38 1267.96 1186.38 1277.97 1184.32 1290.85 1180.2L1298 1247.14C1274 1252.38 1251.59 1255 1230.77 1255 1206.62 1255 1188.82 1251.91 1177.37 1245.72 1165.93 1239.53 1157.47 1230.13 1151.98 1217.52 1146.5 1204.91 1143.76 1184.49 1143.76 1156.25L1143.76 1067.26 1108 1067.26 1108 996.255 1143.76 996.255 1143.76 949.795 1241.02 900Z" fill="#F2F2F2" fill-rule="evenodd"/><path d="M1458.02 900 1458.02 996.255 1511.42 996.255 1511.42 1067.26 1458.02 1067.26 1458.02 1156.9C1458.02 1167.68 1459.06 1174.81 1461.12 1178.3 1464.3 1183.69 1469.86 1186.38 1477.81 1186.38 1484.96 1186.38 1494.97 1184.32 1507.85 1180.2L1515 1247.14C1491 1252.38 1468.59 1255 1447.77 1255 1423.62 1255 1405.82 1251.91 1394.37 1245.72 1382.93 1239.53 1374.47 1230.13 1368.98 1217.52 1363.5 1204.91 1360.76 1184.49 1360.76 1156.25L1360.76 1067.26 1325 1067.26 1325 996.255 1360.76 996.255 1360.76 949.795 1458.02 900Z" fill="#F2F2F2" fill-rule="evenodd"/><path d="M2530.02 900 2530.02 996.255 2583.42 996.255 2583.42 1067.26 2530.02 1067.26 2530.02 1156.9C2530.02 1167.68 2531.06 1174.81 2533.12 1178.3 2536.3 1183.69 2541.86 1186.38 2549.81 1186.38 2556.96 1186.38 2566.98 1184.32 2579.85 1180.2L2587 1247.14C2563 1252.38 2540.59 1255 2519.77 1255 2495.62 1255 2477.82 1251.91 2466.37 1245.72 2454.93 1239.53 2446.47 1230.13 2440.98 1217.52 2435.5 1204.91 2432.76 1184.49 2432.76 1156.25L2432.76 1067.26 2397 1067.26 2397 996.255 2432.76 996.255 2432.76 949.795 2530.02 900Z" fill="#F2F2F2" fill-rule="evenodd"/><path d="M3066.02 900 3066.02 996.255 3119.42 996.255 3119.42 1067.26 3066.02 1067.26 3066.02 1156.9C3066.02 1167.68 3067.06 1174.81 3069.12 1178.3 3072.3 1183.69 3077.86 1186.38 3085.81 1186.38 3092.96 1186.38 3102.98 1184.32 3115.85 1180.2L3123 1247.14C3099 1252.38 3076.59 1255 3055.77 1255 3031.62 1255 3013.82 1251.91 3002.37 1245.72 2990.93 1239.53 2982.47 1230.13 2976.98 1217.52 2971.5 1204.91 2968.76 1184.49 2968.76 1156.25L2968.76 1067.26 2933 1067.26 2933 996.255 2968.76 996.255 2968.76 949.795 3066.02 900Z" fill="#F2F2F2" fill-rule="evenodd"/><path d="M928.415 990C964.747 990 993.43 995.491 1014.46 1006.47 1035.5 1017.46 1051.51 1033.37 1062.51 1054.22 1073.5 1075.07 1079 1102.21 1079 1135.63L1079 1146.61 883.956 1146.61C885.709 1162.21 889.932 1173.83 896.624 1181.47 906.026 1192.45 918.296 1197.94 933.434 1197.94 942.995 1197.94 952.078 1195.55 960.683 1190.78 965.941 1187.76 971.599 1182.42 977.654 1174.78L1073.5 1183.62C1058.84 1209.08 1041.15 1227.35 1020.44 1238.41 999.724 1249.47 970.005 1255 931.283 1255 897.66 1255 871.208 1250.27 851.927 1240.8 832.646 1231.33 816.671 1216.28 804.003 1195.67 791.334 1175.06 785 1150.83 785 1122.98 785 1083.35 797.708 1051.28 823.125 1026.77 848.541 1002.26 883.638 990 928.415 990ZM932.478 1047.54C917.021 1047.54 904.672 1053.66 895.429 1065.92 889.534 1073.56 885.789 1084.94 884.195 1100.06L980.044 1100.06C978.132 1081.28 973.072 1067.83 964.866 1059.71 956.659 1051.59 945.864 1047.54 932.478 1047.54Z" fill="#F2F2F2" fill-rule="evenodd"/><path d="M1687.93 990C1724.14 990 1752.72 995.491 1773.68 1006.47 1794.65 1017.46 1810.61 1033.37 1821.56 1054.22 1832.52 1075.07 1838 1102.21 1838 1135.63L1838 1146.61 1643.62 1146.61C1645.37 1162.21 1649.57 1173.83 1656.24 1181.47 1665.61 1192.45 1677.84 1197.94 1692.93 1197.94 1702.46 1197.94 1711.51 1195.55 1720.09 1190.78 1725.33 1187.76 1730.96 1182.42 1737 1174.78L1832.52 1183.62C1817.91 1209.08 1800.28 1227.35 1779.64 1238.41 1758.99 1249.47 1729.38 1255 1690.79 1255 1657.28 1255 1630.91 1250.27 1611.7 1240.8 1592.48 1231.33 1576.56 1216.28 1563.94 1195.67 1551.31 1175.06 1545 1150.83 1545 1122.98 1545 1083.35 1557.66 1051.28 1582.99 1026.77 1608.32 1002.26 1643.3 990 1687.93 990ZM1691.98 1047.54C1676.57 1047.54 1664.26 1053.66 1655.05 1065.92 1649.18 1073.56 1645.45 1084.94 1643.86 1100.06L1739.38 1100.06C1737.47 1081.28 1732.43 1067.83 1724.25 1059.71 1716.08 1051.59 1705.32 1047.54 1691.98 1047.54Z" fill="#F2F2F2" fill-rule="evenodd"/><path d="M2037.11 990C2051.39 990 2067.02 994.452 2084 1003.36L2054.01 1072.52C2042.58 1067.75 2033.54 1065.36 2026.87 1065.36 2014.18 1065.36 2004.34 1070.61 1997.35 1081.1 1987.36 1095.89 1982.36 1123.55 1982.36 1164.1L1982.36 1249 1885 1249 1885 995.724 1975.69 995.724 1975.69 1037.22C1984.42 1019.25 1993.43 1006.89 2002.71 1000.14 2011.99 993.379 2023.46 990 2037.11 990Z" fill="#F2F2F2" fill-rule="evenodd"/><path d="M2230.67 990C2260.85 990 2283.12 992.308 2297.5 996.923 2311.87 1001.54 2323.87 1008.7 2333.48 1018.41 2343.09 1028.12 2351.07 1041.25 2357.42 1057.8L2265.45 1066.87C2263.07 1058.76 2259.1 1052.79 2253.54 1048.97 2245.91 1043.88 2236.7 1041.33 2225.9 1041.33 2214.94 1041.33 2206.96 1043.28 2201.96 1047.17 2196.95 1051.06 2194.45 1055.79 2194.45 1061.35 2194.45 1067.55 2197.63 1072.24 2203.98 1075.42 2210.33 1078.59 2224.15 1081.46 2245.44 1084 2277.68 1087.66 2301.67 1092.74 2317.39 1099.26 2333.12 1105.78 2345.15 1115.08 2353.49 1127.17 2361.83 1139.25 2366 1152.53 2366 1166.99 2366 1181.62 2361.59 1195.85 2352.78 1209.69 2343.96 1223.52 2330.06 1234.53 2311.08 1242.72 2292.1 1250.91 2266.25 1255 2233.53 1255 2187.3 1255 2154.38 1248.4 2134.76 1235.18 2115.15 1221.97 2102.56 1203.19 2097 1178.84L2193.26 1169.77C2197.23 1181.23 2202.79 1189.43 2209.94 1194.36 2217.08 1199.29 2226.62 1201.76 2238.53 1201.76 2251.55 1201.76 2261.64 1198.98 2268.79 1193.42 2274.35 1189.29 2277.13 1184.12 2277.13 1177.92 2277.13 1170.93 2273.47 1165.53 2266.17 1161.71 2260.93 1159.01 2247.03 1155.67 2224.47 1151.7 2190.8 1145.82 2167.41 1140.37 2154.3 1135.37 2141.2 1130.36 2130.16 1121.89 2121.18 1109.97 2112.21 1098.04 2107.72 1084.45 2107.72 1069.18 2107.72 1052.49 2112.57 1038.1 2122.26 1026.01 2131.95 1013.93 2145.29 1004.91 2162.28 998.943 2179.28 992.981 2202.07 990 2230.67 990Z" fill="#F2F2F2" fill-rule="evenodd"/><path d="M2756.24 990C2785.27 990 2808.59 991.631 2826.2 994.894 2843.8 998.157 2858.48 1004.96 2870.22 1015.31 2878.46 1022.47 2884.97 1032.61 2889.73 1045.75 2894.49 1058.88 2896.87 1071.41 2896.87 1083.35L2896.87 1195.32C2896.87 1207.25 2897.62 1216.6 2899.13 1223.37 2900.63 1230.13 2903.92 1238.77 2909 1249.27L2818.11 1249.27C2814.46 1242.75 2812.08 1237.77 2810.97 1234.35 2809.86 1230.93 2808.75 1225.56 2807.64 1218.23 2794.95 1230.49 2782.34 1239.24 2769.81 1244.5 2752.67 1251.5 2732.77 1255 2710.08 1255 2679.94 1255 2657.06 1248 2641.44 1233.99 2625.81 1219.99 2618 1202.72 2618 1182.18 2618 1162.93 2623.63 1147.09 2634.89 1134.68 2646.16 1122.26 2666.94 1113.03 2697.23 1106.98 2733.56 1099.66 2757.12 1094.53 2767.9 1091.58 2778.69 1088.64 2790.11 1084.78 2802.17 1080 2802.17 1068.07 2799.71 1059.71 2794.79 1054.94 2789.87 1050.16 2781.23 1047.77 2768.85 1047.77 2752.99 1047.77 2741.09 1050.32 2733.16 1055.41 2726.98 1059.39 2721.98 1066.87 2718.17 1077.86L2625.61 1068.07C2629.1 1051.83 2634.14 1039.06 2640.72 1029.75 2647.31 1020.44 2656.78 1012.36 2669.16 1005.52 2678.04 1000.58 2690.25 996.764 2705.8 994.058 2721.35 991.353 2738.16 990 2756.24 990ZM2802.17 1128.95C2788.84 1133.72 2774.96 1137.94 2760.53 1141.6 2740.86 1146.85 2728.4 1152.02 2723.17 1157.12 2717.78 1162.37 2715.08 1168.34 2715.08 1175.02 2715.08 1182.66 2717.74 1188.91 2723.05 1193.76 2728.36 1198.62 2736.18 1201.05 2746.49 1201.05 2757.27 1201.05 2767.31 1198.42 2776.59 1193.17 2785.87 1187.91 2792.45 1181.51 2796.34 1173.95 2800.22 1166.39 2802.17 1156.56 2802.17 1144.46L2802.17 1128.95Z" fill="#F2F2F2" fill-rule="evenodd"/><path d="M3618.29 990C3668.84 990 3707.03 1004.72 3732.86 1034.17 3753.62 1057.88 3764 1087.09 3764 1121.78 3764 1160.78 3751.12 1192.73 3725.37 1217.64 3699.62 1242.55 3664.01 1255 3618.52 1255 3577.96 1255 3545.15 1244.65 3520.11 1223.96 3489.37 1198.34 3474 1164.76 3474 1123.22 3474 1084.54 3486.99 1052.67 3512.98 1027.6 3538.97 1002.53 3574.07 990 3618.29 990ZM3619.71 1056.85C3605.61 1056.85 3593.96 1062.3 3584.77 1073.2 3575.58 1084.1 3570.98 1100.7 3570.98 1122.98 3570.98 1145.58 3575.54 1162.29 3584.65 1173.11 3593.76 1183.94 3605.21 1189.35 3619 1189.35 3632.95 1189.35 3644.39 1184.02 3653.35 1173.35 3662.3 1162.69 3666.78 1145.58 3666.78 1122.02 3666.78 1100.06 3662.26 1083.71 3653.23 1072.96 3644.2 1062.22 3633.02 1056.85 3619.71 1056.85Z" fill="#F2F2F2" fill-rule="evenodd"/><path d="M3994.09 990C4020.97 990 4042.02 997.989 4057.21 1013.97 4072.4 1029.95 4080 1054.63 4080 1088.02L4080 1249 3982.39 1249 3982.39 1109.72C3982.39 1093.82 3979.45 1082.57 3973.56 1075.98 3967.68 1069.38 3959.4 1066.08 3948.74 1066.08 3936.97 1066.08 3927.43 1070.53 3920.11 1079.43 3912.79 1088.34 3909.13 1104.32 3909.13 1127.37L3909.13 1249 3812 1249 3812 995.724 3902.45 995.724 3902.45 1036.98C3915.97 1020.13 3929.65 1008.09 3943.49 1000.85 3957.34 993.617 3974.2 990 3994.09 990Z" fill="#F2F2F2" fill-rule="evenodd"/><g clip-path="url(#clip4)"><g clip-path="url(#clip5)"><g clip-path="url(#clip6)"><path d="M290.5 306.063C290.059 306.063 289.649 306.156 289.219 306.192 288.788 306.229 288.373 306.063 287.932 306.063L114.125 306.063C105.53 306.063 98.5625 313.03 98.5625 321.625 98.5625 330.22 105.53 337.188 114.125 337.188L287.932 337.188C288.373 337.188 288.783 337.094 289.214 337.058 289.644 337.022 290.054 337.188 290.5 337.188 299.095 337.193 306.058 344.164 306.053 352.759 306.048 361.354 299.077 368.318 290.481 368.313 284.822 368.309 279.611 365.234 276.872 360.282 272.828 352.699 263.401 349.829 255.817 353.874 248.233 357.919 245.365 367.346 249.409 374.93 249.492 375.084 249.576 375.237 249.664 375.388 262.167 397.939 290.583 406.084 313.134 393.582 335.685 381.079 343.83 352.662 331.328 330.112 323.1 315.272 307.468 306.064 290.5 306.063Z" fill="#A6A6A6" transform="matrix(1.00201 0 0 1 1406 539)"/><path d="M88.1875 212.688 233.438 212.688C264.952 212.683 290.497 187.132 290.493 155.618 290.489 124.103 264.938 98.5584 233.423 98.5625 204.749 98.5661 180.531 119.848 176.842 148.285 175.745 156.811 181.767 164.612 190.293 165.71 198.819 166.807 206.621 160.785 207.718 152.258 209.577 138.054 222.599 128.048 236.803 129.907 251.007 131.766 261.013 144.788 259.154 158.992 257.463 171.904 246.46 181.562 233.438 181.563L88.1875 181.563C79.5923 181.563 72.625 188.53 72.625 197.125 72.625 205.72 79.5923 212.688 88.1875 212.688Z" fill="#A6A6A6" transform="matrix(1.00201 0 0 1 1406 539)"/><path d="M389.063 119.313C346.054 119.347 311.216 154.24 311.25 197.25 311.255 203.75 312.074 210.224 313.688 216.521 315.825 224.847 324.308 229.863 332.633 227.726 340.958 225.589 345.975 217.107 343.838 208.781 337.4 183.813 352.422 158.354 377.391 151.916 402.359 145.478 427.818 160.5 434.256 185.469 440.694 210.437 425.671 235.896 400.703 242.334 396.901 243.315 392.99 243.811 389.063 243.813L46.6875 243.813C38.0926 243.813 31.125 250.78 31.125 259.375 31.125 267.97 38.0926 274.938 46.6875 274.938L389.063 274.938C432.037 274.938 466.875 240.1 466.875 197.125 466.875 154.15 432.037 119.313 389.063 119.313Z" fill="#A6A6A6" transform="matrix(1.00201 0 0 1 1406 539)"/></g></g></g><g clip-path="url(#clip7)"><g clip-path="url(#clip8)"><g clip-path="url(#clip9)"><path d="M423.248 391.352 310.969 68.599 310.969 46.6779C310.969 39.8089 305.4 34.2404 298.531 34.2404 291.662 34.2404 286.094 39.8089 286.094 46.6779L286.094 68.6488 173.833 391.352C172.387 395.5 174.577 400.035 178.725 401.481 179.565 401.774 180.449 401.923 181.339 401.924 185.236 401.861 188.533 399.027 189.181 395.183 192.468 377.576 209.406 365.969 227.014 369.256 240.528 371.78 250.983 382.551 253.103 396.134 253.645 399.832 257.081 402.39 260.779 401.848 263.736 401.414 266.059 399.092 266.492 396.134 268.207 384.977 275.647 375.536 286.094 371.259L286.094 472.687 279.875 472.687 279.875 500.672C279.875 507.541 274.307 513.109 267.437 513.109 260.568 513.109 255 507.541 255 500.672 255 490.368 246.647 482.015 236.344 482.015 226.04 482.015 217.687 490.368 217.687 500.672 217.687 528.148 239.961 550.422 267.437 550.422 294.914 550.422 317.187 528.148 317.187 500.672L317.187 472.687 310.969 472.687 310.969 371.259C321.421 375.532 328.866 384.974 330.583 396.134 331.124 399.832 334.561 402.39 338.258 401.848 341.215 401.414 343.538 399.092 343.972 396.134 346.746 378.436 363.342 366.338 381.041 369.112 394.613 371.24 405.372 381.686 407.9 395.189 408.547 399.031 411.841 401.864 415.736 401.93 420.132 401.927 423.693 398.359 423.689 393.963 423.688 393.077 423.539 392.196 423.248 391.358Z" fill="#0070C0" transform="matrix(1.00167 0 0 1 3017 788)"/></g></g></g><g clip-path="url(#clip10)"><g clip-path="url(#clip11)"><g clip-path="url(#clip12)"><path d="M3186.5 701.187C3186.5 701.187 3131.03 779.287 3131.03 814.344 3131.03 844.963 3155.88 869.812 3186.5 869.812 3217.12 869.812 3241.97 844.963 3241.97 814.344 3241.97 779.066 3186.5 701.187 3186.5 701.187Z" fill="#8FAADC"/></g></g></g><g clip-path="url(#clip13)"><g clip-path="url(#clip14)"><g clip-path="url(#clip15)"><path d="M3285 613.333C3285 613.333 3239.17 677.867 3239.17 706.833 3239.17 732.133 3259.7 752.667 3285 752.667 3310.3 752.667 3330.83 732.133 3330.83 706.833 3330.83 677.683 3285 613.333 3285 613.333Z" fill="#00B0F0"/></g></g></g><g clip-path="url(#clip16)"><g clip-path="url(#clip17)"><g clip-path="url(#clip18)"><path d="M3393.5 673.938C3393.5 673.938 3341.16 747.638 3341.16 780.719 3341.16 809.612 3364.61 833.062 3393.5 833.062 3422.39 833.062 3445.84 809.612 3445.84 780.719 3445.84 747.428 3393.5 673.938 3393.5 673.938Z" fill="#8FAADC"/></g></g></g></g></svg>